<?xml version="1.0" standalone="no"?>
<!DOCTYPE svg PUBLIC "-//W3C//DTD SVG 20010904//EN"
 "http://www.w3.org/TR/2001/REC-SVG-20010904/DTD/svg10.dtd">
<svg version="1.0" xmlns="http://www.w3.org/2000/svg"
 width="300.000000pt" height="300.000000pt" viewBox="0 0 300.000000 300.000000"
 preserveAspectRatio="xMidYMid meet">
<metadata>
Created by potrace 1.14, written by Peter Selinger 2001-2017
</metadata>
<g transform="translate(0.000000,300.000000) scale(0.100000,-0.100000)"
fill="#000000" stroke="none">
<path d="M1955 2842 c-43 -14 -84 -47 -104 -82 -11 -20 -50 -117 -86 -216 -36
-98 -68 -186 -72 -194 -3 -8 -7 -17 -7 -20 -1 -5 -21 -57 -36 -95 -4 -11 -17
-45 -28 -75 -11 -30 -24 -64 -28 -75 -4 -11 -8 -22 -8 -25 -1 -3 -18 -48 -38
-100 -20 -52 -66 -176 -103 -275 -36 -99 -72 -196 -79 -215 -25 -62 -72 -190
-176 -470 -55 -151 -105 -284 -110 -295 -23 -51 -110 -295 -119 -334 -5 -23
-7 -55 -5 -69 6 -35 42 -103 62 -120 26 -20 83 -44 119 -49 65 -9 158 39 189
98 16 31 103 261 136 359 10 30 22 64 27 75 5 11 22 54 36 95 15 41 33 89 40
105 13 32 119 316 121 325 0 3 5 16 11 30 10 24 29 75 93 250 25 69 129 348
237 635 24 66 49 131 54 145 4 14 14 39 20 55 7 17 13 35 15 40 4 13 83 226
91 245 20 48 2 152 -35 195 -41 50 -151 78 -217 57z"/>
<path d="M738 2813 c-210 -35 -344 -141 -411 -322 -16 -46 -20 -84 -22 -214
-1 -87 -5 -160 -8 -164 -3 -3 -61 -5 -127 -4 -116 1 -122 0 -146 -24 -23 -23
-24 -28 -24 -183 0 -145 2 -160 20 -180 23 -25 16 -24 170 -24 l115 0 0 -749
0 -748 23 -23 c22 -22 29 -23 197 -23 168 1 176 2 198 23 l22 23 1 737 c1 405
2 742 3 749 1 8 35 12 119 12 174 -1 178 -1 203 20 22 17 23 25 24 163 0 79
-3 158 -7 176 -12 44 -49 53 -206 50 -82 -2 -133 1 -135 7 -9 25 2 224 13 244
6 13 28 30 48 38 43 18 164 20 205 4 45 -17 81 -13 105 12 21 22 22 33 22 168
0 79 -3 155 -7 167 -8 33 -76 60 -166 67 -139 11 -154 11 -229 -2z"/>
<path d="M2286 1915 c-21 -8 -52 -26 -68 -42 -30 -28 -64 -83 -52 -83 4 0 2
-6 -3 -12 -17 -22 -8 -102 16 -145 15 -26 75 -84 166 -159 l143 -118 -26 -27
c-15 -14 -80 -70 -146 -124 -80 -67 -123 -109 -134 -134 -24 -56 -27 -71 -18
-106 2 -11 5 -29 5 -41 1 -27 64 -100 104 -121 41 -21 113 -23 157 -5 19 8 66
40 103 71 37 31 87 71 110 89 23 19 65 53 92 77 28 24 84 71 125 105 120 99
140 131 136 223 -2 63 -21 108 -58 135 -9 7 -23 18 -30 25 -7 7 -53 46 -103
87 -49 41 -92 77 -95 80 -24 26 -244 201 -270 215 -44 23 -106 26 -154 10z"/>
</g>
</svg>
