<svg xmlns="http://www.w3.org/2000/svg" width="118.464" height="35.315" viewBox="0 0 118.464 35.315"><g transform="translate(-0.946 -0.001)"><path d="M33.039,30.891a9.973,9.973,0,0,1-3.545-2.559,10.834,10.834,0,0,1-2.141-3.809,14.89,14.89,0,0,1-.7-4.619,15.064,15.064,0,0,1,.7-4.632,10.814,10.814,0,0,1,2.141-3.836A10.2,10.2,0,0,1,33.032,8.86a12.8,12.8,0,0,1,9.59,0,10.3,10.3,0,0,1,3.514,2.577,10.833,10.833,0,0,1,2.141,3.832,15.112,15.112,0,0,1,.7,4.636,14.89,14.89,0,0,1-.7,4.619,10.834,10.834,0,0,1-2.141,3.809,10.04,10.04,0,0,1-3.521,2.559,11.9,11.9,0,0,1-4.8.913A11.928,11.928,0,0,1,33.039,30.891ZM35.6,13.174a5.25,5.25,0,0,0-1.817,1.342,6.6,6.6,0,0,0-1.249,2.237,9.734,9.734,0,0,0-.468,3.151,9.716,9.716,0,0,0,.468,3.152,6.344,6.344,0,0,0,1.242,2.21A5.359,5.359,0,0,0,35.6,26.6a5.62,5.62,0,0,0,4.441,0,5.389,5.389,0,0,0,1.824-1.331,6.316,6.316,0,0,0,1.245-2.21A9.811,9.811,0,0,0,43.57,19.9a9.833,9.833,0,0,0-.465-3.151,6.608,6.608,0,0,0-1.252-2.237,5.25,5.25,0,0,0-1.817-1.342,5.57,5.57,0,0,0-4.441,0ZM4.427,31.354a.855.855,0,0,1-.855-.855V13.2H.855A.854.854,0,0,1,0,12.348V9.272a.853.853,0,0,1,.855-.855H3.572V6.111A5.816,5.816,0,0,1,5.358,1.55,7.218,7.218,0,0,1,10.3,0a9.386,9.386,0,0,1,1.238.089A6.729,6.729,0,0,1,12.83.373a.851.851,0,0,1,.581.811V4.222a.856.856,0,0,1-1.146.8,3.369,3.369,0,0,0-.794-.182,3.69,3.69,0,0,0-2.361.281c-.22.154-.339.575-.339,1.191v2.1h3.254a.853.853,0,0,1,.855.855v3.076a.854.854,0,0,1-.855.856H8.772V30.5a.853.853,0,0,1-.855.855Zm61.882,0a.856.856,0,0,1-.856-.855V16.128a3.37,3.37,0,0,0-.9-2.515,3.426,3.426,0,0,0-2.556-.9,6.362,6.362,0,0,0-2.44.424,4.461,4.461,0,0,0-1.635,1.17,5.268,5.268,0,0,0-1,1.817,7.8,7.8,0,0,0-.349,2.385V30.5a.853.853,0,0,1-.855.855h-3.49a.856.856,0,0,1-.855-.855V9.271a.856.856,0,0,1,.855-.855h3.285a.853.853,0,0,1,.855.855v.938a8.391,8.391,0,0,1,6.125-2.286,10.176,10.176,0,0,1,3.819.637A6.67,6.67,0,0,1,68.9,10.4a6.837,6.837,0,0,1,1.386,2.788,13.941,13.941,0,0,1,.373,3.346V30.5a.856.856,0,0,1-.856.855Zm-51.324,0a.856.856,0,0,1-.856-.856V9.271a.855.855,0,0,1,.856-.855h3.284a.855.855,0,0,1,.856.855v1.666A8.572,8.572,0,0,1,21,9.216a8.683,8.683,0,0,1,5.18-1.293.855.855,0,0,1,.832.856v3.695a.856.856,0,0,1-.856.856,9.123,9.123,0,0,0-3.263.517,4.75,4.75,0,0,0-2.026,1.427,6.1,6.1,0,0,0-1.149,2.364,13.579,13.579,0,0,0-.383,3.418V30.5a.856.856,0,0,1-.856.856Zm66.193,0a13.384,13.384,0,0,1-2.481-.2,4.269,4.269,0,0,1-1.943-.859A3.733,3.733,0,0,1,75.6,28.5a8.678,8.678,0,0,1-.328-2.638V13.2H72.515a.855.855,0,0,1-.856-.855V9.271a.856.856,0,0,1,.856-.856h2.758V2.907a.856.856,0,0,1,.855-.856h3.49a.855.855,0,0,1,.855.856V8.415h3.374a.855.855,0,0,1,.855.856V12.35a.855.855,0,0,1-.855.855H80.473V25.529a2.819,2.819,0,0,0,.072.756c.086.123.185.188.469.222a10.858,10.858,0,0,0,1.232.055h1.6a.855.855,0,0,1,.855.856V30.5a.855.855,0,0,1-.855.855Z" transform="translate(0.946 2.111)" fill="#c4a37b"/><path d="M14.708.163a2.562,2.562,0,0,0-3.3,1.509L.163,31.856A2.565,2.565,0,0,0,4.97,33.645L16.217,3.461a2.564,2.564,0,0,0-1.509-3.3" transform="translate(92.864 0.001)" fill="#3a3a3a"/><path d="M10,5.429,4.212.595A2.568,2.568,0,1,0,.921,4.536L4.353,7.4.924,10.264A2.565,2.565,0,0,0,4.212,14.2L10,9.367a2.56,2.56,0,0,0,0-3.938" transform="translate(108.488 12.059)" fill="#3a3a3a"/></g></svg>